<?xml version="1.0" encoding="utf-8"?>
<!-- Generator: Adobe Illustrator 21.1.0, SVG Export Plug-In . SVG Version: 6.00 Build 0)  -->
<svg version="1.1" id="duck" xmlns="http://www.w3.org/2000/svg" xmlns:xlink="http://www.w3.org/1999/xlink" x="0px" y="0px"
	 viewBox="0 0 120 120" style="enable-background:new 0 0 120 120;" xml:space="preserve">
<g>
	<path d="M109.1,73.3c1,0,2-0.3,2.9-0.5c1-0.3,1.9-0.7,2.8-1.1l1.7-0.9l-0.9,1.8c-2.1,4-4.8,7.7-8.1,10.8c-3.3,3.2-7.1,5.8-11.2,7.8
		c-4.1,2-8.5,3.4-12.9,4.2c-4.5,0.8-9,1.1-13.5,0.8c-4.6-0.4-9.1-1.8-13-4.1c-3.9-2.3-7.4-5.4-10.1-8.9c-5.5-7.2-8.5-15.9-9.8-24.6
		l0.3,0c1.7,8.6,5,17,10.6,23.7c2.8,3.3,6.1,6.2,9.9,8.2c3.8,2,8,3.2,12.2,3.4c8.6,0.2,17.3-1.8,25-5.4c7.8-3.6,14.6-9.2,19.5-16.5
		l0.8,0.9c-1,0.3-2,0.6-3.1,0.8c-1,0.2-2.1,0.2-3.2,0L109.1,73.3z"/>
</g>
<g>
	<path d="M77,55.1c3.1,0.3,6.2,0.3,9.2,0.1c3-0.2,6-0.6,9-1.2c1.5-0.3,3-0.6,4.4-1l2.2-0.6l2.2-0.7c1.5-0.4,2.8-1,4.3-1.5
		c1.4-0.5,2.8-1.2,4.2-1.7l1.8-0.8l0.2,1.9c0.2,2.1,0.4,4.2,0.2,6.3c-0.1,2.1-0.4,4.2-0.8,6.2c-0.5,2-1.1,4-1.9,5.9
		c-0.8,1.9-1.8,3.8-3,5.4c0.8-1.9,1.3-3.9,1.8-5.8c0.5-2,0.8-3.9,1-5.9c0.2-2,0.3-4,0.3-5.9c0-2-0.3-3.9-0.5-5.9l2,1.1
		c-1.4,0.6-2.9,1.3-4.3,1.9c-1.5,0.5-2.9,1.1-4.5,1.6c-3,1-6.1,1.6-9.2,2c-3.1,0.4-6.3,0.5-9.4,0.3C83.1,56.6,80,56.2,77,55.1z"/>
</g>
<g>
	<path d="M88.6,43l-2.5-0.1c-0.8,0-1.6,0-2.4,0.1c-0.8,0.1-1.5,0.2-2.3,0.3c-0.4,0.1-0.7,0.1-1.1,0.2c-0.3,0.1-0.7,0.2-0.9,0.3
		l0.1-1.7c0.4,0.4,0.6,0.6,0.9,0.9c0.2,0.3,0.5,0.6,0.7,1c0.4,0.7,0.7,1.4,0.9,2.1c0.2,0.7,0.4,1.4,0.5,2.2c0.1,0.7,0.3,1.4,0.4,2.1
		l0.1,0.7l-0.6-0.3c-0.4-0.3-0.9-0.5-1.4-0.6c-0.5-0.1-1-0.1-1.5-0.1c-0.5,0-1,0.1-1.5,0.1c-0.5,0.1-1,0.1-1.4,0.2l0.6-1.1
		c0.1,0.5,0.3,1,0.3,1.5c0.1,0.5,0.1,1,0.1,1.5c0,1-0.2,2-0.5,2.9l-0.2,0c-0.2-1-0.4-1.9-0.6-2.8c-0.1-0.4-0.2-0.9-0.3-1.3
		c-0.1-0.4-0.2-0.9-0.4-1.2l-0.3-0.9l0.9-0.3c0.7-0.2,1.2-0.3,1.8-0.2c0.6,0,1.2,0.1,1.7,0.3c0.6,0.2,1.1,0.4,1.6,0.7
		c0.5,0.2,1,0.5,1.5,0.8l-0.4,0.3c-0.2-0.7-0.3-1.4-0.6-2c-0.3-0.6-0.6-1.2-1-1.8c-0.4-0.6-0.7-1.1-1.1-1.6
		c-0.2-0.3-0.4-0.5-0.6-0.7c-0.2-0.2-0.5-0.5-0.6-0.6L77,42.8l1.5-0.8c0.5-0.3,0.9-0.4,1.4-0.6c0.4-0.1,0.9-0.2,1.3-0.3
		c0.9-0.1,1.8-0.1,2.6,0c0.9,0.1,1.7,0.3,2.5,0.6c0.8,0.3,1.6,0.6,2.3,1.1L88.6,43z"/>
</g>
<g>
	<path d="M25.6,54.8c-1-3.6-1.1-7.4-0.3-11.2c0.8-3.7,2.5-7.3,4.9-10.3c1.2-1.5,2.6-2.9,4.1-4.1c1.5-1.2,3.2-2.2,5-3
		c1.8-0.8,3.6-1.4,5.5-1.7c1.9-0.4,3.8-0.5,5.7-0.6c7.5-0.3,15.1,1,21.8,4.3c6.7,3.3,12.2,8.6,16.5,14.5L88.5,43
		C84,37.2,78.3,32.4,71.7,29.6c-6.6-2.9-13.9-3.9-21-3.3c-1.8,0.2-3.6,0.4-5.2,0.8c-1.7,0.4-3.3,1-4.8,1.8c-3.1,1.5-5.8,3.7-8.1,6.3
		c-2.3,2.6-4.1,5.6-5.2,9c-1.1,3.3-1.6,6.9-1.5,10.6L25.6,54.8z"/>
</g>
<g>
	<path d="M53.7,69.7c1.9,3.3,4.9,5.9,8.3,7.4c3.4,1.6,7.1,2.4,10.8,2.6c3.7,0.1,7.5-0.3,10.9-1.6c3.4-1.2,6.7-2.9,9.1-5.4l1.4,2
		c-1.5,0.4-3.1,0.6-4.6,0.7c-1.5,0-3.1-0.1-4.6-0.4l0-0.3c2.9-0.5,5.8-1.2,8.4-2.3l4.1-1.8l-2.7,3.7c-2.5,3.4-6.3,5.6-10.2,6.6
		c-3.9,1-8,1.3-11.9,0.9c-3.9-0.4-7.8-1.5-11.3-3.5c-3.4-2-6.4-4.9-7.9-8.5L53.7,69.7z"/>
</g>
<g>
	<path d="M39,55.1c-2.9-0.1-5.8,0.2-8.6,0.5c-2.9,0.3-5.7,0.8-8.5,1.4c-1.4,0.3-2.8,0.6-4.2,1c-1.4,0.3-2.8,0.7-4.1,1.1
		c-1.4,0.4-2.7,0.9-4.1,1.3c-1.4,0.4-2.7,0.9-4,1.4l0.9-1.6c0.2,1,0.5,1.8,1.1,2.6c0.6,0.7,1.3,1.4,2.2,1.9c0.9,0.5,1.9,0.9,2.9,1.1
		c1,0.2,2.2,0.4,3.2,0.5l-0.8,0.2c1.7-1,3.4-2,5.2-2.8c1.8-0.8,3.6-1.6,5.4-2.3c1.8-0.7,3.7-1.2,5.6-1.7c1.9-0.5,3.8-0.9,5.7-1.1
		c-3.6,1.3-7.1,2.9-10.5,4.5c-1.7,0.9-3.4,1.7-5,2.7c-1.6,0.9-3.2,1.9-4.8,3l-0.3,0.2l-0.4,0c-1.4,0-2.6-0.2-3.8-0.4
		c-1.2-0.3-2.5-0.7-3.7-1.4c-1.2-0.6-2.3-1.5-3.2-2.6c-0.9-1.1-1.4-2.5-1.6-3.9l-0.2-1.3L4.5,59c1.4-0.5,2.8-1,4.2-1.4
		c1.4-0.4,2.8-0.8,4.2-1.2c2.8-0.7,5.7-1.3,8.6-1.7c2.9-0.4,5.8-0.6,8.8-0.6C33.3,54.2,36.2,54.4,39,55.1z"/>
</g>
<path d="M50.3,43.1c-0.8-0.5-1.6-1-2.4-1.4c-0.8-0.4-1.7-0.6-2.5-0.7c-0.8-0.1-1.7,0-2.5,0.2c-0.8,0.2-1.6,0.7-2.4,1.5
	c0.2,0.1,0.4,0.1,0.6,0.2c0.2,0.1,0.5,0.2,0.7,0.4c0.4,0.3,0.6,0.7,0.6,1.1c0.1,0.5-0.1,1-0.5,1.5c-0.4,0.6-1,0.9-1.7,1
	c-0.7,0.1-1.4-0.1-2.1-0.6c-0.7-0.6-1.1-1.3-1.1-2.1c0-0.8,0.2-1.5,0.7-2.2c0.6-0.8,1.5-1.4,2.6-1.8c1.1-0.4,2.3-0.5,3.5-0.3
	c1.3,0.2,2.5,0.6,3.6,1.2c1.1,0.6,2.1,1.2,2.8,1.7L50.3,43.1z"/>
</svg>
